<svg xmlns="http://www.w3.org/2000/svg" width="32" height="32" viewBox="0 0 32 32">
    <path fill="#212022" d="M16 0C7.163 0 0 7.163 0 16c0 4.243 1.686 8.313 4.686 11.314 3 3 7.07 4.686 11.314 4.686 4.243 0 8.313-1.686 11.314-4.686 3-3 4.686-7.07 4.686-11.314 0-4.243-1.686-8.313-4.686-11.314C24.314 1.686 20.244 0 16 0M8.112 26.048C8.8 24.608 12.992 23.2 16 23.2s7.2 1.408 7.888 2.848C21.712 27.776 18.976 28.8 16 28.8s-5.712-1.024-7.888-2.752m18.064-2.32C23.888 20.944 18.336 20 16 20c-2.336 0-7.888.944-10.176 3.728C4.192 21.6 3.2 18.912 3.2 16 3.2 8.944 8.944 3.2 16 3.2c7.056 0 12.8 5.744 12.8 12.8 0 2.912-.992 5.6-2.624 7.728M16 6.4c-3.104 0-5.6 2.496-5.6 5.6 0 3.104 2.496 5.6 5.6 5.6 3.104 0 5.6-2.496 5.6-5.6 0-3.104-2.496-5.6-5.6-5.6m0 8c-1.325 0-2.4-1.075-2.4-2.4s1.075-2.4 2.4-2.4 2.4 1.075 2.4 2.4-1.075 2.4-2.4 2.4z"/>
</svg>
